M48
; DRILL file {KiCad 7.0.2-0} date 2024 March 15, Friday 16:03:37
; FORMAT={-:-/ absolute / inch / decimal}
; #@! TF.CreationDate,2024-03-15T16:03:37-04:00
; #@! TF.GenerationSoftware,Kicad,Pcbnew,7.0.2-0
; #@! TF.FileFunction,NonPlated,1,2,NPTH
FMAT,2
INCH
; #@! TA.AperFunction,NonPlated,NPTH,ComponentDrill
T1C0.0256
; #@! TA.AperFunction,NonPlated,NPTH,ComponentDrill
T2C0.0670
; #@! TA.AperFunction,NonPlated,NPTH,ComponentDrill
T3C0.1181
; #@! TA.AperFunction,NonPlated,NPTH,ComponentDrill
T4C0.1200
; #@! TA.AperFunction,NonPlated,NPTH,ComponentDrill
T5C0.1570
%
G90
G05
T1
X12.2612Y-0.5711
X12.4888Y-0.5711
T2
X0.8325Y-0.9875
X0.8325Y-2.1125
X0.9263Y-5.1125
X1.02Y-2.8625
X1.1138Y-3.6125
X1.2325Y-0.9875
X1.2325Y-2.1125
X1.3013Y-4.3625
X1.3262Y-5.1125
X1.42Y-2.8625
X1.5137Y-3.6125
X1.5825Y-2.1125
X1.7012Y-4.3625
X1.8638Y-5.1125
X1.9575Y-2.8625
X1.9825Y-2.1125
X2.145Y-3.6125
X2.2637Y-5.1125
X2.3325Y-0.9875
X2.3325Y-2.1125
X2.3575Y-2.8625
X2.52Y-4.3625
X2.545Y-3.6125
X2.7075Y-2.8625
X2.7325Y-0.9875
X2.7325Y-2.1125
X2.8013Y-5.1125
X2.895Y-3.6125
X2.92Y-4.3625
X3.0825Y-0.9875
X3.0825Y-2.1125
X3.1075Y-2.8625
X3.2012Y-5.1125
X3.27Y-4.3625
X3.295Y-3.6125
X3.4575Y-2.8625
X3.4825Y-0.9875
X3.4825Y-2.1125
X3.645Y-3.6125
X3.67Y-4.3625
X3.8325Y-0.9875
X3.8325Y-2.1125
X3.8575Y-2.8625
X4.02Y-4.3625
X4.045Y-3.6125
X4.2075Y-2.8625
X4.2325Y-0.9875
X4.2325Y-2.1125
X4.395Y-3.6125
X4.42Y-4.3625
X4.5825Y-0.9875
X4.5825Y-2.1125
X4.6075Y-2.8625
X4.77Y-4.3625
X4.795Y-3.6125
X4.9575Y-2.8625
X4.9825Y-0.9875
X4.9825Y-2.1125
X5.145Y-3.6125
X5.17Y-4.3625
X5.3325Y-2.1125
X5.3575Y-2.8625
X5.52Y-4.3625
X5.545Y-3.6125
X5.6137Y-5.1125
X5.7075Y-0.9875
X5.7075Y-2.8625
X5.7325Y-2.1125
X5.895Y-3.6125
X5.92Y-4.3625
X6.0137Y-5.1125
X6.0825Y-2.1125
X6.1075Y-0.9875
X6.1075Y-2.8625
X6.27Y-4.3625
X6.295Y-3.6125
X6.4575Y-0.9875
X6.4575Y-2.8625
X6.4825Y-2.1125
X6.645Y-3.6125
X6.67Y-4.3625
X6.8325Y-2.1125
X6.8575Y-0.9875
X6.8575Y-2.8625
X7.02Y-4.3625
X7.045Y-3.6125
X7.2075Y-0.9875
X7.2075Y-2.8625
X7.2325Y-2.1125
X7.395Y-3.6125
X7.42Y-4.3625
X7.5825Y-2.1125
X7.6075Y-0.9875
X7.6075Y-2.8625
X7.77Y-4.3625
X7.795Y-3.6125
X7.9575Y-0.9875
X7.9575Y-2.8625
X7.9825Y-2.1125
X8.145Y-3.6125
X8.17Y-4.3625
X8.3325Y-2.1125
X8.3575Y-0.9875
X8.3575Y-2.8625
X8.4262Y-5.1125
X8.52Y-4.3625
X8.545Y-3.6125
X8.7075Y-2.8625
X8.7325Y-2.1125
X8.8262Y-5.1125
X8.895Y-3.6125
X8.92Y-4.3625
X9.0825Y-0.9875
X9.0825Y-2.1125
X9.1075Y-2.8625
X9.27Y-4.3625
X9.295Y-3.6125
X9.3637Y-5.1125
X9.4575Y-2.8625
X9.4825Y-0.9875
X9.4825Y-2.1125
X9.645Y-3.6125
X9.67Y-4.3625
X9.7637Y-5.1125
X9.8325Y-0.9875
X9.8325Y-2.1125
X9.8575Y-2.8625
X10.045Y-3.6125
X10.2075Y-2.8625
X10.2325Y-0.9875
X10.2325Y-2.1125
X10.3012Y-5.1125
X10.5825Y-0.9875
X10.6075Y-2.8625
X10.6762Y-4.3625
X10.7012Y-5.1125
X10.8637Y-3.6125
X10.9575Y-2.1125
X10.9825Y-0.9875
X11.0762Y-4.3625
X11.145Y-2.8625
X11.2387Y-5.1125
X11.2637Y-3.6125
X11.3325Y-0.9875
X11.3575Y-2.1125
X11.545Y-2.8625
X11.6387Y-5.1125
X11.7325Y-0.9875
X12.4575Y-2.1125
X12.4575Y-2.8625
X12.4575Y-5.1125
X12.8575Y-2.1125
X12.8575Y-2.8625
X12.8575Y-5.1125
X13.2075Y-2.1125
X13.2075Y-2.8625
X13.2075Y-4.3625
X13.2075Y-5.1125
X13.6075Y-2.1125
X13.6075Y-2.8625
X13.6075Y-4.3625
X13.6075Y-5.1125
X13.9575Y-2.1125
X13.9575Y-2.8625
X13.9575Y-5.1125
X14.3575Y-2.1125
X14.3575Y-2.8625
X14.3575Y-5.1125
T3
X0.8825Y-0.8875
X0.8825Y-2.0125
X0.9762Y-5.0125
X1.07Y-2.7625
X1.1325Y-0.7875
X1.1325Y-1.9125
X1.1638Y-3.5125
X1.2263Y-4.9125
X1.32Y-2.6625
X1.3513Y-4.2625
X1.4138Y-3.4125
X1.6013Y-4.1625
X1.6325Y-2.0125
X1.8825Y-1.9125
X1.9138Y-5.0125
X2.0075Y-2.7625
X2.1637Y-4.9125
X2.195Y-3.5125
X2.2575Y-2.6625
X2.3825Y-0.8875
X2.3825Y-2.0125
X2.445Y-3.4125
X2.57Y-4.2625
X2.6325Y-0.7875
X2.6325Y-1.9125
X2.7575Y-2.7625
X2.82Y-4.1625
X2.8512Y-5.0125
X2.945Y-3.5125
X3.0075Y-2.6625
X3.1012Y-4.9125
X3.1325Y-0.8875
X3.1325Y-2.0125
X3.195Y-3.4125
X3.32Y-4.2625
X3.3825Y-0.7875
X3.3825Y-1.9125
X3.5075Y-2.7625
X3.57Y-4.1625
X3.695Y-3.5125
X3.7575Y-2.6625
X3.8825Y-0.8875
X3.8825Y-2.0125
X3.945Y-3.4125
X4.07Y-4.2625
X4.1325Y-0.7875
X4.1325Y-1.9125
X4.2575Y-2.7625
X4.32Y-4.1625
X4.445Y-3.5125
X4.5075Y-2.6625
X4.6325Y-0.8875
X4.6325Y-2.0125
X4.695Y-3.4125
X4.82Y-4.2625
X4.8825Y-0.7875
X4.8825Y-1.9125
X5.0075Y-2.7625
X5.07Y-4.1625
X5.195Y-3.5125
X5.2575Y-2.6625
X5.3825Y-2.0125
X5.445Y-3.4125
X5.57Y-4.2625
X5.6325Y-1.9125
X5.6638Y-5.0125
X5.7575Y-0.8875
X5.7575Y-2.7625
X5.82Y-4.1625
X5.9138Y-4.9125
X5.945Y-3.5125
X6.0075Y-0.7875
X6.0075Y-2.6625
X6.1325Y-2.0125
X6.195Y-3.4125
X6.32Y-4.2625
X6.3825Y-1.9125
X6.5075Y-0.8875
X6.5075Y-2.7625
X6.57Y-4.1625
X6.695Y-3.5125
X6.7575Y-0.7875
X6.7575Y-2.6625
X6.8825Y-2.0125
X6.945Y-3.4125
X7.07Y-4.2625
X7.1325Y-1.9125
X7.2575Y-0.8875
X7.2575Y-2.7625
X7.32Y-4.1625
X7.445Y-3.5125
X7.5075Y-0.7875
X7.5075Y-2.6625
X7.6325Y-2.0125
X7.695Y-3.4125
X7.82Y-4.2625
X7.8825Y-1.9125
X8.0075Y-0.8875
X8.0075Y-2.7625
X8.07Y-4.1625
X8.195Y-3.5125
X8.2575Y-0.7875
X8.2575Y-2.6625
X8.3825Y-2.0125
X8.445Y-3.4125
X8.4763Y-5.0125
X8.57Y-4.2625
X8.6325Y-1.9125
X8.7263Y-4.9125
X8.7575Y-2.7625
X8.82Y-4.1625
X8.945Y-3.5125
X9.0075Y-2.6625
X9.1325Y-0.8875
X9.1325Y-2.0125
X9.195Y-3.4125
X9.32Y-4.2625
X9.3825Y-0.7875
X9.3825Y-1.9125
X9.4138Y-5.0125
X9.5075Y-2.7625
X9.57Y-4.1625
X9.6638Y-4.9125
X9.695Y-3.5125
X9.7575Y-2.6625
X9.8825Y-0.8875
X9.8825Y-2.0125
X9.945Y-3.4125
X10.1325Y-0.7875
X10.1325Y-1.9125
X10.2575Y-2.7625
X10.3513Y-5.0125
X10.5075Y-2.6625
X10.6013Y-4.9125
X10.6325Y-0.8875
X10.7263Y-4.2625
X10.8825Y-0.7875
X10.9138Y-3.5125
X10.9763Y-4.1625
X11.0075Y-2.0125
X11.1638Y-3.4125
X11.195Y-2.7625
X11.2575Y-1.9125
X11.2888Y-5.0125
X11.3825Y-0.8875
X11.445Y-2.6625
X11.5388Y-4.9125
X11.6325Y-0.7875
X12.5075Y-2.0125
X12.5075Y-2.7625
X12.5075Y-5.0125
X12.7575Y-1.9125
X12.7575Y-2.6625
X12.7575Y-4.9125
X13.2575Y-2.0125
X13.2575Y-2.7625
X13.2575Y-4.2625
X13.2575Y-5.0125
X13.5075Y-1.9125
X13.5075Y-2.6625
X13.5075Y-4.1625
X13.5075Y-4.9125
X14.0075Y-2.0125
X14.0075Y-2.7625
X14.0075Y-5.0125
X14.2575Y-1.9125
X14.2575Y-2.6625
X14.2575Y-4.9125
T4
X1.0312Y-4.0875
X1.9712Y-4.0875
X3.8452Y-4.8375
X7.7823Y-4.8375
X10.4062Y-4.0875
X10.5938Y-3.3375
X10.6875Y-1.8375
X11.3462Y-4.0875
X11.5337Y-3.3375
X11.6275Y-1.8375
T5
X1.0312Y-4.6875
X1.0325Y-0.9875
X1.0325Y-2.1125
X1.1262Y-5.1125
X1.22Y-2.8625
X1.3137Y-3.6125
X1.5012Y-4.3625
X1.7825Y-2.1125
X1.9712Y-4.6875
X2.0637Y-5.1125
X2.1575Y-2.8625
X2.345Y-3.6125
X2.5325Y-0.9875
X2.5325Y-2.1125
X2.72Y-4.3625
X2.9075Y-2.8625
X3.0012Y-5.1125
X3.095Y-3.6125
X3.2825Y-0.9875
X3.2825Y-2.1125
X3.47Y-4.3625
X3.6575Y-2.8625
X3.845Y-3.6125
X3.8452Y-5.4375
X4.0325Y-0.9875
X4.0325Y-2.1125
X4.22Y-4.3625
X4.4075Y-2.8625
X4.595Y-3.6125
X4.7825Y-0.9875
X4.7825Y-2.1125
X4.97Y-4.3625
X5.1575Y-2.8625
X5.345Y-3.6125
X5.5325Y-2.1125
X5.72Y-4.3625
X5.8137Y-5.1125
X5.9075Y-0.9875
X5.9075Y-2.8625
X6.095Y-3.6125
X6.2825Y-2.1125
X6.47Y-4.3625
X6.6575Y-0.9875
X6.6575Y-2.8625
X6.845Y-3.6125
X7.0325Y-2.1125
X7.22Y-4.3625
X7.4075Y-0.9875
X7.4075Y-2.8625
X7.595Y-3.6125
X7.7823Y-5.4375
X7.7825Y-2.1125
X7.97Y-4.3625
X8.1575Y-0.9875
X8.1575Y-2.8625
X8.345Y-3.6125
X8.5325Y-2.1125
X8.6263Y-5.1125
X8.72Y-4.3625
X8.9075Y-2.8625
X9.095Y-3.6125
X9.2825Y-0.9875
X9.2825Y-2.1125
X9.47Y-4.3625
X9.5638Y-5.1125
X9.6575Y-2.8625
X9.845Y-3.6125
X10.0325Y-0.9875
X10.0325Y-2.1125
X10.4062Y-4.6875
X10.4075Y-2.8625
X10.5013Y-5.1125
X10.5938Y-3.9375
X10.6875Y-2.4375
X10.7825Y-0.9875
X10.8763Y-4.3625
X11.0637Y-3.6125
X11.1575Y-2.1125
X11.345Y-2.8625
X11.3462Y-4.6875
X11.4387Y-5.1125
X11.5325Y-0.9875
X11.5337Y-3.9375
X11.6275Y-2.4375
X12.6575Y-2.1125
X12.6575Y-2.8625
X12.6575Y-5.1125
X13.4075Y-2.1125
X13.4075Y-2.8625
X13.4075Y-4.3625
X13.4075Y-5.1125
X14.1575Y-2.1125
X14.1575Y-2.8625
X14.1575Y-5.1125
T0
M30
