%TF.GenerationSoftware,KiCad,Pcbnew,7.0.2-0*%
%TF.CreationDate,2024-03-15T16:03:43-04:00*%
%TF.ProjectId,75Dash_PCB,37354461-7368-45f5-9043-422e6b696361,rev?*%
%TF.SameCoordinates,Original*%
%TF.FileFunction,Soldermask,Top*%
%TF.FilePolarity,Negative*%
%FSLAX46Y46*%
G04 Gerber Fmt 4.6, Leading zero omitted, Abs format (unit mm)*
G04 Created by KiCad (PCBNEW 7.0.2-0) date 2024-03-15 16:03:43*
%MOMM*%
%LPD*%
G01*
G04 APERTURE LIST*
%ADD10C,1.701800*%
%ADD11C,3.000000*%
%ADD12C,3.987800*%
%ADD13C,1.651000*%
%ADD14R,1.651000X1.651000*%
%ADD15C,3.048000*%
%ADD16C,0.650000*%
%ADD17R,0.600000X1.450000*%
%ADD18R,0.300000X1.450000*%
%ADD19O,1.000000X2.100000*%
%ADD20O,1.000000X1.600000*%
%ADD21R,2.800000X1.500000*%
%ADD22C,1.350000*%
%ADD23O,1.350000X1.350000*%
%ADD24R,1.500000X2.800000*%
%ADD25O,1.905000X2.159000*%
%ADD26R,1.905000X2.159000*%
%ADD27R,2.000000X2.000000*%
%ADD28C,2.000000*%
%ADD29R,3.200000X2.000000*%
G04 APERTURE END LIST*
D10*
%TO.C,MX64*%
X102108000Y-110807500D03*
D11*
X103378000Y-108267500D03*
D12*
X107188000Y-110807500D03*
D11*
X109728000Y-105727500D03*
D10*
X112268000Y-110807500D03*
%TD*%
%TO.C,MX40*%
X202120500Y-72707500D03*
D11*
X203390500Y-70167500D03*
D12*
X207200500Y-72707500D03*
D11*
X209740500Y-67627500D03*
D10*
X212280500Y-72707500D03*
%TD*%
%TO.C,MX19*%
X116395500Y-53657500D03*
D11*
X117665500Y-51117500D03*
D12*
X121475500Y-53657500D03*
D11*
X124015500Y-48577500D03*
D10*
X126555500Y-53657500D03*
%TD*%
D13*
%TO.C,D53*%
X132270500Y-98901250D03*
D14*
X139890500Y-98901250D03*
%TD*%
D13*
%TO.C,D15*%
X41783000Y-60801250D03*
D14*
X49403000Y-60801250D03*
%TD*%
D13*
%TO.C,D7*%
X165608000Y-32226250D03*
D14*
X173228000Y-32226250D03*
%TD*%
D10*
%TO.C,MX45*%
X316420500Y-72707500D03*
D11*
X317690500Y-70167500D03*
D12*
X321500500Y-72707500D03*
D11*
X324040500Y-67627500D03*
D10*
X326580500Y-72707500D03*
%TD*%
%TO.C,MX1*%
X21145500Y-25082500D03*
D11*
X22415500Y-22542500D03*
D12*
X26225500Y-25082500D03*
D11*
X28765500Y-20002500D03*
D10*
X31305500Y-25082500D03*
%TD*%
%TO.C,MX16*%
X59245500Y-53657500D03*
D11*
X60515500Y-51117500D03*
D12*
X64325500Y-53657500D03*
D11*
X66865500Y-48577500D03*
D10*
X69405500Y-53657500D03*
%TD*%
D13*
%TO.C,D42*%
X241808000Y-79851250D03*
D14*
X249428000Y-79851250D03*
%TD*%
D10*
%TO.C,MX65*%
X121158000Y-110807500D03*
D11*
X122428000Y-108267500D03*
D12*
X126238000Y-110807500D03*
D11*
X128778000Y-105727500D03*
D10*
X131318000Y-110807500D03*
%TD*%
D13*
%TO.C,D41*%
X222758000Y-79851250D03*
D14*
X230378000Y-79851250D03*
%TD*%
D13*
%TO.C,D83*%
X337058000Y-137001250D03*
D14*
X344678000Y-137001250D03*
%TD*%
D13*
%TO.C,D9*%
X203708000Y-32226250D03*
D14*
X211328000Y-32226250D03*
%TD*%
D10*
%TO.C,MX3*%
X78295500Y-25082500D03*
D11*
X79565500Y-22542500D03*
D12*
X83375500Y-25082500D03*
D11*
X85915500Y-20002500D03*
D10*
X88455500Y-25082500D03*
%TD*%
D13*
%TO.C,D62*%
X65595500Y-117951250D03*
D14*
X73215500Y-117951250D03*
%TD*%
D15*
%TO.C,MX72*%
X264318750Y-103822500D03*
D12*
X264318750Y-119062500D03*
D10*
X271176750Y-110807500D03*
D11*
X272446750Y-108267500D03*
D12*
X276256750Y-110807500D03*
D11*
X278796750Y-105727500D03*
D10*
X281336750Y-110807500D03*
D15*
X288194750Y-103822500D03*
D12*
X288194750Y-119062500D03*
%TD*%
D10*
%TO.C,MX14*%
X21145500Y-53657500D03*
D11*
X22415500Y-51117500D03*
D12*
X26225500Y-53657500D03*
D11*
X28765500Y-48577500D03*
D10*
X31305500Y-53657500D03*
%TD*%
D13*
%TO.C,D39*%
X184658000Y-79851250D03*
D14*
X192278000Y-79851250D03*
%TD*%
D10*
%TO.C,MX75*%
X47339250Y-129857500D03*
D11*
X48609250Y-127317500D03*
D12*
X52419250Y-129857500D03*
D11*
X54959250Y-124777500D03*
D10*
X57499250Y-129857500D03*
%TD*%
%TO.C,MX36*%
X125920500Y-72707500D03*
D11*
X127190500Y-70167500D03*
D12*
X131000500Y-72707500D03*
D11*
X133540500Y-67627500D03*
D10*
X136080500Y-72707500D03*
%TD*%
%TO.C,MX4*%
X97345500Y-25082500D03*
D11*
X98615500Y-22542500D03*
D12*
X102425500Y-25082500D03*
D11*
X104965500Y-20002500D03*
D10*
X107505500Y-25082500D03*
%TD*%
D13*
%TO.C,D54*%
X151320500Y-98901250D03*
D14*
X158940500Y-98901250D03*
%TD*%
D13*
%TO.C,D19*%
X117983000Y-60801250D03*
D14*
X125603000Y-60801250D03*
%TD*%
D13*
%TO.C,D4*%
X98933000Y-32226250D03*
D14*
X106553000Y-32226250D03*
%TD*%
D13*
%TO.C,D6*%
X146558000Y-32226250D03*
D14*
X154178000Y-32226250D03*
%TD*%
D13*
%TO.C,D75*%
X48926750Y-137001250D03*
D14*
X56546750Y-137001250D03*
%TD*%
D13*
%TO.C,R1*%
X308900000Y-33900000D03*
X319060000Y-33900000D03*
%TD*%
D10*
%TO.C,MX58*%
X225933000Y-91757500D03*
D11*
X227203000Y-89217500D03*
D12*
X231013000Y-91757500D03*
D11*
X233553000Y-86677500D03*
D10*
X236093000Y-91757500D03*
%TD*%
%TO.C,MX42*%
X240220500Y-72707500D03*
D11*
X241490500Y-70167500D03*
D12*
X245300500Y-72707500D03*
D11*
X247840500Y-67627500D03*
D10*
X250380500Y-72707500D03*
%TD*%
%TO.C,MX50*%
X73533000Y-91757500D03*
D11*
X74803000Y-89217500D03*
D12*
X78613000Y-91757500D03*
D11*
X81153000Y-86677500D03*
D10*
X83693000Y-91757500D03*
%TD*%
%TO.C,MX47*%
X354520500Y-72707500D03*
D11*
X355790500Y-70167500D03*
D12*
X359600500Y-72707500D03*
D11*
X362140500Y-67627500D03*
D10*
X364680500Y-72707500D03*
%TD*%
D13*
%TO.C,D81*%
X287051750Y-137001250D03*
D14*
X294671750Y-137001250D03*
%TD*%
D10*
%TO.C,MX68*%
X178308000Y-110807500D03*
D11*
X179578000Y-108267500D03*
D12*
X183388000Y-110807500D03*
D11*
X185928000Y-105727500D03*
D10*
X188468000Y-110807500D03*
%TD*%
%TO.C,MX79*%
X237839250Y-129857500D03*
D11*
X239109250Y-127317500D03*
D12*
X242919250Y-129857500D03*
D11*
X245459250Y-124777500D03*
D10*
X247999250Y-129857500D03*
%TD*%
D13*
%TO.C,D52*%
X113220500Y-98901250D03*
D14*
X120840500Y-98901250D03*
%TD*%
D13*
%TO.C,D30*%
X356108000Y-60801250D03*
D14*
X363728000Y-60801250D03*
%TD*%
D10*
%TO.C,MX28*%
X316420500Y-53657500D03*
D11*
X317690500Y-51117500D03*
D12*
X321500500Y-53657500D03*
D11*
X324040500Y-48577500D03*
D10*
X326580500Y-53657500D03*
%TD*%
D13*
%TO.C,D25*%
X232283000Y-60801250D03*
D14*
X239903000Y-60801250D03*
%TD*%
D13*
%TO.C,D63*%
X84645500Y-117951250D03*
D14*
X92265500Y-117951250D03*
%TD*%
D10*
%TO.C,MX71*%
X235458000Y-110807500D03*
D11*
X236728000Y-108267500D03*
D12*
X240538000Y-110807500D03*
D11*
X243078000Y-105727500D03*
D10*
X245618000Y-110807500D03*
%TD*%
D13*
%TO.C,D82*%
X318008000Y-137001250D03*
D14*
X325628000Y-137001250D03*
%TD*%
D10*
%TO.C,MX81*%
X285464250Y-129857500D03*
D11*
X286734250Y-127317500D03*
D12*
X290544250Y-129857500D03*
D11*
X293084250Y-124777500D03*
D10*
X295624250Y-129857500D03*
%TD*%
%TO.C,MX35*%
X106870500Y-72707500D03*
D11*
X108140500Y-70167500D03*
D12*
X111950500Y-72707500D03*
D11*
X114490500Y-67627500D03*
D10*
X117030500Y-72707500D03*
%TD*%
D13*
%TO.C,D66*%
X141795500Y-117951250D03*
D14*
X149415500Y-117951250D03*
%TD*%
D10*
%TO.C,MX59*%
X244983000Y-91757500D03*
D11*
X246253000Y-89217500D03*
D12*
X250063000Y-91757500D03*
D11*
X252603000Y-86677500D03*
D10*
X255143000Y-91757500D03*
%TD*%
D13*
%TO.C,D35*%
X108458000Y-79851250D03*
D14*
X116078000Y-79851250D03*
%TD*%
D10*
%TO.C,MX15*%
X40195500Y-53657500D03*
D11*
X41465500Y-51117500D03*
D12*
X45275500Y-53657500D03*
D11*
X47815500Y-48577500D03*
D10*
X50355500Y-53657500D03*
%TD*%
D13*
%TO.C,D12*%
X270383000Y-32226250D03*
D14*
X278003000Y-32226250D03*
%TD*%
D10*
%TO.C,MX6*%
X144970500Y-25082500D03*
D11*
X146240500Y-22542500D03*
D12*
X150050500Y-25082500D03*
D11*
X152590500Y-20002500D03*
D10*
X155130500Y-25082500D03*
%TD*%
D13*
%TO.C,D1*%
X22733000Y-32226250D03*
D14*
X30353000Y-32226250D03*
%TD*%
D13*
%TO.C,D50*%
X75120500Y-98901250D03*
D14*
X82740500Y-98901250D03*
%TD*%
D13*
%TO.C,D32*%
X51308000Y-79851250D03*
D14*
X58928000Y-79851250D03*
%TD*%
D10*
%TO.C,MX33*%
X68770500Y-72707500D03*
D11*
X70040500Y-70167500D03*
D12*
X73850500Y-72707500D03*
D11*
X76390500Y-67627500D03*
D10*
X78930500Y-72707500D03*
%TD*%
%TO.C,MX39*%
X183070500Y-72707500D03*
D11*
X184340500Y-70167500D03*
D12*
X188150500Y-72707500D03*
D11*
X190690500Y-67627500D03*
D10*
X193230500Y-72707500D03*
%TD*%
D13*
%TO.C,D5*%
X117983000Y-32226250D03*
D14*
X125603000Y-32226250D03*
%TD*%
D13*
%TO.C,D70*%
X217995500Y-117951250D03*
D14*
X225615500Y-117951250D03*
%TD*%
D13*
%TO.C,D76*%
X72739250Y-137001250D03*
D14*
X80359250Y-137001250D03*
%TD*%
D15*
%TO.C,MX77*%
X97669250Y-122872500D03*
D12*
X97669250Y-138112500D03*
D10*
X142589250Y-129857500D03*
D11*
X143859250Y-127317500D03*
D12*
X147669250Y-129857500D03*
D11*
X150209250Y-124777500D03*
D10*
X152749250Y-129857500D03*
D15*
X197669250Y-122872500D03*
D12*
X197669250Y-138112500D03*
%TD*%
D10*
%TO.C,MX69*%
X197358000Y-110807500D03*
D11*
X198628000Y-108267500D03*
D12*
X202438000Y-110807500D03*
D11*
X204978000Y-105727500D03*
D10*
X207518000Y-110807500D03*
%TD*%
%TO.C,MX13*%
X287845500Y-25082500D03*
D11*
X289115500Y-22542500D03*
D12*
X292925500Y-25082500D03*
D11*
X295465500Y-20002500D03*
D10*
X298005500Y-25082500D03*
%TD*%
D13*
%TO.C,D74*%
X25114250Y-137001250D03*
D14*
X32734250Y-137001250D03*
%TD*%
D10*
%TO.C,MX56*%
X187833000Y-91757500D03*
D11*
X189103000Y-89217500D03*
D12*
X192913000Y-91757500D03*
D11*
X195453000Y-86677500D03*
D10*
X197993000Y-91757500D03*
%TD*%
D13*
%TO.C,D21*%
X156083000Y-60801250D03*
D14*
X163703000Y-60801250D03*
%TD*%
D10*
%TO.C,MX82*%
X316420500Y-129857500D03*
D11*
X317690500Y-127317500D03*
D12*
X321500500Y-129857500D03*
D11*
X324040500Y-124777500D03*
D10*
X326580500Y-129857500D03*
%TD*%
D13*
%TO.C,D59*%
X246570500Y-98901250D03*
D14*
X254190500Y-98901250D03*
%TD*%
D13*
%TO.C,D2*%
X60833000Y-32226250D03*
D14*
X68453000Y-32226250D03*
%TD*%
D10*
%TO.C,MX9*%
X202120500Y-25082500D03*
D11*
X203390500Y-22542500D03*
D12*
X207200500Y-25082500D03*
D11*
X209740500Y-20002500D03*
D10*
X212280500Y-25082500D03*
%TD*%
D13*
%TO.C,D78*%
X215614250Y-137001250D03*
D14*
X223234250Y-137001250D03*
%TD*%
D13*
%TO.C,D14*%
X22733000Y-60801250D03*
D14*
X30353000Y-60801250D03*
%TD*%
D10*
%TO.C,MX66*%
X140208000Y-110807500D03*
D11*
X141478000Y-108267500D03*
D12*
X145288000Y-110807500D03*
D11*
X147828000Y-105727500D03*
D10*
X150368000Y-110807500D03*
%TD*%
%TO.C,MX38*%
X164020500Y-72707500D03*
D11*
X165290500Y-70167500D03*
D12*
X169100500Y-72707500D03*
D11*
X171640500Y-67627500D03*
D10*
X174180500Y-72707500D03*
%TD*%
D13*
%TO.C,D10*%
X232283000Y-32226250D03*
D14*
X239903000Y-32226250D03*
%TD*%
D13*
%TO.C,D46*%
X337058000Y-79851250D03*
D14*
X344678000Y-79851250D03*
%TD*%
D13*
%TO.C,D57*%
X208470500Y-98901250D03*
D14*
X216090500Y-98901250D03*
%TD*%
D10*
%TO.C,MX57*%
X206883000Y-91757500D03*
D11*
X208153000Y-89217500D03*
D12*
X211963000Y-91757500D03*
D11*
X214503000Y-86677500D03*
D10*
X217043000Y-91757500D03*
%TD*%
%TO.C,MX55*%
X168783000Y-91757500D03*
D11*
X170053000Y-89217500D03*
D12*
X173863000Y-91757500D03*
D11*
X176403000Y-86677500D03*
D10*
X178943000Y-91757500D03*
%TD*%
%TO.C,MX5*%
X116395500Y-25082500D03*
D11*
X117665500Y-22542500D03*
D12*
X121475500Y-25082500D03*
D11*
X124015500Y-20002500D03*
D10*
X126555500Y-25082500D03*
%TD*%
%TO.C,MX76*%
X71151750Y-129857500D03*
D11*
X72421750Y-127317500D03*
D12*
X76231750Y-129857500D03*
D11*
X78771750Y-124777500D03*
D10*
X81311750Y-129857500D03*
%TD*%
D13*
%TO.C,D27*%
X279908000Y-60801250D03*
D14*
X287528000Y-60801250D03*
%TD*%
D10*
%TO.C,MX54*%
X149733000Y-91757500D03*
D11*
X151003000Y-89217500D03*
D12*
X154813000Y-91757500D03*
D11*
X157353000Y-86677500D03*
D10*
X159893000Y-91757500D03*
%TD*%
D15*
%TO.C,MX60*%
X269081250Y-84772500D03*
D12*
X269081250Y-100012500D03*
D10*
X275939250Y-91757500D03*
D11*
X277209250Y-89217500D03*
D12*
X281019250Y-91757500D03*
D11*
X283559250Y-86677500D03*
D10*
X286099250Y-91757500D03*
D15*
X292957250Y-84772500D03*
D12*
X292957250Y-100012500D03*
%TD*%
D10*
%TO.C,MX52*%
X111633000Y-91757500D03*
D11*
X112903000Y-89217500D03*
D12*
X116713000Y-91757500D03*
D11*
X119253000Y-86677500D03*
D10*
X121793000Y-91757500D03*
%TD*%
%TO.C,MX30*%
X354520500Y-53657500D03*
D11*
X355790500Y-51117500D03*
D12*
X359600500Y-53657500D03*
D11*
X362140500Y-48577500D03*
D10*
X364680500Y-53657500D03*
%TD*%
D15*
%TO.C,MX27*%
X271462500Y-46672500D03*
D12*
X271462500Y-61912500D03*
D10*
X278320500Y-53657500D03*
D11*
X279590500Y-51117500D03*
D12*
X283400500Y-53657500D03*
D11*
X285940500Y-48577500D03*
D10*
X288480500Y-53657500D03*
D15*
X295338500Y-46672500D03*
D12*
X295338500Y-61912500D03*
%TD*%
D10*
%TO.C,MX32*%
X49720500Y-72707500D03*
D11*
X50990500Y-70167500D03*
D12*
X54800500Y-72707500D03*
D11*
X57340500Y-67627500D03*
D10*
X59880500Y-72707500D03*
%TD*%
D13*
%TO.C,D18*%
X98933000Y-60801250D03*
D14*
X106553000Y-60801250D03*
%TD*%
D13*
%TO.C,D16*%
X60833000Y-60801250D03*
D14*
X68453000Y-60801250D03*
%TD*%
D13*
%TO.C,D36*%
X127508000Y-79851250D03*
D14*
X135128000Y-79851250D03*
%TD*%
D13*
%TO.C,D61*%
X34639250Y-117951250D03*
D14*
X42259250Y-117951250D03*
%TD*%
D13*
%TO.C,D73*%
X337058000Y-117951250D03*
D14*
X344678000Y-117951250D03*
%TD*%
D10*
%TO.C,MX7*%
X164020500Y-25082500D03*
D11*
X165290500Y-22542500D03*
D12*
X169100500Y-25082500D03*
D11*
X171640500Y-20002500D03*
D10*
X174180500Y-25082500D03*
%TD*%
D13*
%TO.C,D23*%
X194183000Y-60801250D03*
D14*
X201803000Y-60801250D03*
%TD*%
D13*
%TO.C,D3*%
X79883000Y-32226250D03*
D14*
X87503000Y-32226250D03*
%TD*%
D10*
%TO.C,MX46*%
X335470500Y-72707500D03*
D11*
X336740500Y-70167500D03*
D12*
X340550500Y-72707500D03*
D11*
X343090500Y-67627500D03*
D10*
X345630500Y-72707500D03*
%TD*%
D13*
%TO.C,D45*%
X318008000Y-79851250D03*
D14*
X325628000Y-79851250D03*
%TD*%
D13*
%TO.C,D64*%
X103695500Y-117951250D03*
D14*
X111315500Y-117951250D03*
%TD*%
D10*
%TO.C,MX11*%
X249745500Y-25082500D03*
D11*
X251015500Y-22542500D03*
D12*
X254825500Y-25082500D03*
D11*
X257365500Y-20002500D03*
D10*
X259905500Y-25082500D03*
%TD*%
D13*
%TO.C,D26*%
X251333000Y-60801250D03*
D14*
X258953000Y-60801250D03*
%TD*%
D10*
%TO.C,MX78*%
X214026750Y-129857500D03*
D11*
X215296750Y-127317500D03*
D12*
X219106750Y-129857500D03*
D11*
X221646750Y-124777500D03*
D10*
X224186750Y-129857500D03*
%TD*%
D13*
%TO.C,D11*%
X251333000Y-32226250D03*
D14*
X258953000Y-32226250D03*
%TD*%
D13*
%TO.C,D71*%
X237045500Y-117951250D03*
D14*
X244665500Y-117951250D03*
%TD*%
D13*
%TO.C,D79*%
X239426750Y-137001250D03*
D14*
X247046750Y-137001250D03*
%TD*%
D13*
%TO.C,D56*%
X189420500Y-98901250D03*
D14*
X197040500Y-98901250D03*
%TD*%
D13*
%TO.C,R2*%
X308920000Y-37050000D03*
X319080000Y-37050000D03*
%TD*%
%TO.C,D28*%
X318008000Y-60801250D03*
D14*
X325628000Y-60801250D03*
%TD*%
D10*
%TO.C,MX53*%
X130683000Y-91757500D03*
D11*
X131953000Y-89217500D03*
D12*
X135763000Y-91757500D03*
D11*
X138303000Y-86677500D03*
D10*
X140843000Y-91757500D03*
%TD*%
%TO.C,MX63*%
X83058000Y-110807500D03*
D11*
X84328000Y-108267500D03*
D12*
X88138000Y-110807500D03*
D11*
X90678000Y-105727500D03*
D10*
X93218000Y-110807500D03*
%TD*%
%TO.C,MX67*%
X159258000Y-110807500D03*
D11*
X160528000Y-108267500D03*
D12*
X164338000Y-110807500D03*
D11*
X166878000Y-105727500D03*
D10*
X169418000Y-110807500D03*
%TD*%
D13*
%TO.C,D20*%
X137033000Y-60801250D03*
D14*
X144653000Y-60801250D03*
%TD*%
D15*
%TO.C,MX61*%
X26193750Y-103822500D03*
D12*
X26193750Y-119062500D03*
D10*
X33051750Y-110807500D03*
D11*
X34321750Y-108267500D03*
D12*
X38131750Y-110807500D03*
D11*
X40671750Y-105727500D03*
D10*
X43211750Y-110807500D03*
D15*
X50069750Y-103822500D03*
D12*
X50069750Y-119062500D03*
%TD*%
D13*
%TO.C,D60*%
X277526750Y-98901250D03*
D14*
X285146750Y-98901250D03*
%TD*%
D10*
%TO.C,MX2*%
X59245500Y-25082500D03*
D11*
X60515500Y-22542500D03*
D12*
X64325500Y-25082500D03*
D11*
X66865500Y-20002500D03*
D10*
X69405500Y-25082500D03*
%TD*%
D16*
%TO.C,J1*%
X317215000Y-14506250D03*
X311435000Y-14506250D03*
D17*
X317575000Y-15951250D03*
X316775000Y-15951250D03*
D18*
X315575000Y-15951250D03*
X314575000Y-15951250D03*
X314075000Y-15951250D03*
X313075000Y-15951250D03*
D17*
X311875000Y-15951250D03*
X311075000Y-15951250D03*
X311075000Y-15951250D03*
X311875000Y-15951250D03*
D18*
X312575000Y-15951250D03*
X313575000Y-15951250D03*
X315075000Y-15951250D03*
X316075000Y-15951250D03*
D17*
X316775000Y-15951250D03*
X317575000Y-15951250D03*
D19*
X318645000Y-15036250D03*
D20*
X318645000Y-10856250D03*
D19*
X310005000Y-15036250D03*
D20*
X310005000Y-10856250D03*
%TD*%
D10*
%TO.C,MX51*%
X92583000Y-91757500D03*
D11*
X93853000Y-89217500D03*
D12*
X97663000Y-91757500D03*
D11*
X100203000Y-86677500D03*
D10*
X102743000Y-91757500D03*
%TD*%
%TO.C,MX29*%
X335470500Y-53657500D03*
D11*
X336740500Y-51117500D03*
D12*
X340550500Y-53657500D03*
D11*
X343090500Y-48577500D03*
D10*
X345630500Y-53657500D03*
%TD*%
D13*
%TO.C,D13*%
X289433000Y-32226250D03*
D14*
X297053000Y-32226250D03*
%TD*%
D13*
%TO.C,D77*%
X144176750Y-137001250D03*
D14*
X151796750Y-137001250D03*
%TD*%
D13*
%TO.C,D34*%
X89408000Y-79851250D03*
D14*
X97028000Y-79851250D03*
%TD*%
D10*
%TO.C,MX83*%
X335470500Y-129857500D03*
D11*
X336740500Y-127317500D03*
D12*
X340550500Y-129857500D03*
D11*
X343090500Y-124777500D03*
D10*
X345630500Y-129857500D03*
%TD*%
D13*
%TO.C,D47*%
X356108000Y-79851250D03*
D14*
X363728000Y-79851250D03*
%TD*%
D13*
%TO.C,D58*%
X227520500Y-98901250D03*
D14*
X235140500Y-98901250D03*
%TD*%
D13*
%TO.C,D29*%
X337058000Y-60801250D03*
D14*
X344678000Y-60801250D03*
%TD*%
D10*
%TO.C,MX34*%
X87820500Y-72707500D03*
D11*
X89090500Y-70167500D03*
D12*
X92900500Y-72707500D03*
D11*
X95440500Y-67627500D03*
D10*
X97980500Y-72707500D03*
%TD*%
D13*
%TO.C,D55*%
X170370500Y-98901250D03*
D14*
X177990500Y-98901250D03*
%TD*%
D13*
%TO.C,D22*%
X175133000Y-60801250D03*
D14*
X182753000Y-60801250D03*
%TD*%
D13*
%TO.C,D49*%
X56070500Y-98901250D03*
D14*
X63690500Y-98901250D03*
%TD*%
D10*
%TO.C,MX20*%
X135445500Y-53657500D03*
D11*
X136715500Y-51117500D03*
D12*
X140525500Y-53657500D03*
D11*
X143065500Y-48577500D03*
D10*
X145605500Y-53657500D03*
%TD*%
D13*
%TO.C,D86*%
X355890000Y-33500000D03*
D14*
X363510000Y-33500000D03*
%TD*%
D10*
%TO.C,MX25*%
X230695500Y-53657500D03*
D11*
X231965500Y-51117500D03*
D12*
X235775500Y-53657500D03*
D11*
X238315500Y-48577500D03*
D10*
X240855500Y-53657500D03*
%TD*%
D21*
%TO.C,U1*%
X324200000Y-20050000D03*
D22*
X324850000Y-20050000D03*
D21*
X324200000Y-22050000D03*
D23*
X324850000Y-22050000D03*
D21*
X324200000Y-24050000D03*
D23*
X324850000Y-24050000D03*
D21*
X324200000Y-26050000D03*
D23*
X324850000Y-26050000D03*
D21*
X324200000Y-28050000D03*
D23*
X324850000Y-28050000D03*
D21*
X324200000Y-30050000D03*
D23*
X324850000Y-30050000D03*
D21*
X324200000Y-32050000D03*
D23*
X324850000Y-32050000D03*
D21*
X324200000Y-34050000D03*
D23*
X324850000Y-34050000D03*
D21*
X324200000Y-36050000D03*
D23*
X324850000Y-36050000D03*
D21*
X324200000Y-38050000D03*
D23*
X324850000Y-38050000D03*
X326850000Y-40050000D03*
D24*
X326850000Y-40700000D03*
D23*
X328850000Y-40050000D03*
D24*
X328850000Y-40700000D03*
D23*
X330850000Y-40050000D03*
D24*
X330850000Y-40700000D03*
D23*
X332850000Y-40050000D03*
D24*
X332850000Y-40700000D03*
D23*
X334850000Y-40050000D03*
D24*
X334850000Y-40700000D03*
D23*
X336850000Y-40050000D03*
D24*
X336850000Y-40700000D03*
D23*
X338850000Y-40050000D03*
D24*
X338850000Y-40700000D03*
D23*
X340850000Y-40050000D03*
D24*
X340850000Y-40700000D03*
D23*
X342850000Y-40050000D03*
D24*
X342850000Y-40700000D03*
D23*
X344850000Y-40050000D03*
D24*
X344850000Y-40700000D03*
D23*
X346850000Y-38050000D03*
D21*
X347500000Y-38050000D03*
D23*
X346850000Y-36050000D03*
D21*
X347500000Y-36050000D03*
D23*
X346850000Y-34050000D03*
D21*
X347500000Y-34050000D03*
D23*
X346850000Y-32050000D03*
D21*
X347500000Y-32050000D03*
D23*
X346850000Y-30050000D03*
D21*
X347500000Y-30050000D03*
D23*
X346850000Y-28050000D03*
D21*
X347500000Y-28050000D03*
D23*
X346850000Y-26050000D03*
D21*
X347500000Y-26050000D03*
D23*
X346850000Y-24050000D03*
D21*
X347500000Y-24050000D03*
D23*
X346850000Y-22050000D03*
D21*
X347500000Y-22050000D03*
D23*
X346850000Y-20050000D03*
D21*
X347500000Y-20050000D03*
D24*
X344850000Y-17400000D03*
D23*
X344850000Y-18050000D03*
D24*
X342850000Y-17400000D03*
D23*
X342850000Y-18050000D03*
D24*
X340850000Y-17400000D03*
D23*
X340850000Y-18050000D03*
D24*
X338850000Y-17400000D03*
D23*
X338850000Y-18050000D03*
D24*
X336850000Y-17400000D03*
D23*
X336850000Y-18050000D03*
D24*
X334850000Y-17400000D03*
D23*
X334850000Y-18050000D03*
D24*
X332850000Y-17400000D03*
D23*
X332850000Y-18050000D03*
D24*
X330850000Y-17400000D03*
D23*
X330850000Y-18050000D03*
D24*
X328850000Y-17400000D03*
D23*
X328850000Y-18050000D03*
D24*
X326850000Y-17400000D03*
D23*
X326850000Y-18050000D03*
%TD*%
D10*
%TO.C,MX10*%
X230695500Y-25082500D03*
D11*
X231965500Y-22542500D03*
D12*
X235775500Y-25082500D03*
D11*
X238315500Y-20002500D03*
D10*
X240855500Y-25082500D03*
%TD*%
%TO.C,MX48*%
X28289250Y-91757500D03*
D11*
X29559250Y-89217500D03*
D12*
X33369250Y-91757500D03*
D11*
X35909250Y-86677500D03*
D10*
X38449250Y-91757500D03*
%TD*%
D13*
%TO.C,D51*%
X94170500Y-98901250D03*
D14*
X101790500Y-98901250D03*
%TD*%
D10*
%TO.C,MX70*%
X216408000Y-110807500D03*
D11*
X217678000Y-108267500D03*
D12*
X221488000Y-110807500D03*
D11*
X224028000Y-105727500D03*
D10*
X226568000Y-110807500D03*
%TD*%
D13*
%TO.C,D43*%
X260858000Y-79851250D03*
D14*
X268478000Y-79851250D03*
%TD*%
D13*
%TO.C,D80*%
X263239250Y-137001250D03*
D14*
X270859250Y-137001250D03*
%TD*%
D10*
%TO.C,MX43*%
X259270500Y-72707500D03*
D11*
X260540500Y-70167500D03*
D12*
X264350500Y-72707500D03*
D11*
X266890500Y-67627500D03*
D10*
X269430500Y-72707500D03*
%TD*%
%TO.C,MX8*%
X183070500Y-25082500D03*
D11*
X184340500Y-22542500D03*
D12*
X188150500Y-25082500D03*
D11*
X190690500Y-20002500D03*
D10*
X193230500Y-25082500D03*
%TD*%
D13*
%TO.C,D44*%
X284670500Y-79851250D03*
D14*
X292290500Y-79851250D03*
%TD*%
D10*
%TO.C,MX12*%
X268795500Y-25082500D03*
D11*
X270065500Y-22542500D03*
D12*
X273875500Y-25082500D03*
D11*
X276415500Y-20002500D03*
D10*
X278955500Y-25082500D03*
%TD*%
%TO.C,MX84*%
X354520500Y-129857500D03*
D11*
X355790500Y-127317500D03*
D12*
X359600500Y-129857500D03*
D11*
X362140500Y-124777500D03*
D10*
X364680500Y-129857500D03*
%TD*%
%TO.C,MX62*%
X64008000Y-110807500D03*
D11*
X65278000Y-108267500D03*
D12*
X69088000Y-110807500D03*
D11*
X71628000Y-105727500D03*
D10*
X74168000Y-110807500D03*
%TD*%
D13*
%TO.C,D31*%
X27495500Y-79851250D03*
D14*
X35115500Y-79851250D03*
%TD*%
D25*
%TO.C,D85*%
X312480000Y-30400000D03*
D26*
X315020000Y-30400000D03*
%TD*%
D10*
%TO.C,MX18*%
X97345500Y-53657500D03*
D11*
X98615500Y-51117500D03*
D12*
X102425500Y-53657500D03*
D11*
X104965500Y-48577500D03*
D10*
X107505500Y-53657500D03*
%TD*%
%TO.C,MX80*%
X261651750Y-129857500D03*
D11*
X262921750Y-127317500D03*
D12*
X266731750Y-129857500D03*
D11*
X269271750Y-124777500D03*
D10*
X271811750Y-129857500D03*
%TD*%
%TO.C,MX73*%
X335470500Y-110807500D03*
D11*
X336740500Y-108267500D03*
D12*
X340550500Y-110807500D03*
D11*
X343090500Y-105727500D03*
D10*
X345630500Y-110807500D03*
%TD*%
D13*
%TO.C,D48*%
X29876750Y-98901250D03*
D14*
X37496750Y-98901250D03*
%TD*%
D10*
%TO.C,MX21*%
X154495500Y-53657500D03*
D11*
X155765500Y-51117500D03*
D12*
X159575500Y-53657500D03*
D11*
X162115500Y-48577500D03*
D10*
X164655500Y-53657500D03*
%TD*%
D13*
%TO.C,D68*%
X179895500Y-117951250D03*
D14*
X187515500Y-117951250D03*
%TD*%
D13*
%TO.C,D17*%
X79883000Y-60801250D03*
D14*
X87503000Y-60801250D03*
%TD*%
D13*
%TO.C,D40*%
X203708000Y-79851250D03*
D14*
X211328000Y-79851250D03*
%TD*%
D10*
%TO.C,MX41*%
X221170500Y-72707500D03*
D11*
X222440500Y-70167500D03*
D12*
X226250500Y-72707500D03*
D11*
X228790500Y-67627500D03*
D10*
X231330500Y-72707500D03*
%TD*%
D27*
%TO.C,SW2*%
X352100000Y-22550000D03*
D28*
X352100000Y-27550000D03*
X352100000Y-25050000D03*
D29*
X359600000Y-19450000D03*
X359600000Y-30650000D03*
D28*
X366600000Y-27550000D03*
X366600000Y-22550000D03*
%TD*%
D10*
%TO.C,MX24*%
X211645500Y-53657500D03*
D11*
X212915500Y-51117500D03*
D12*
X216725500Y-53657500D03*
D11*
X219265500Y-48577500D03*
D10*
X221805500Y-53657500D03*
%TD*%
%TO.C,MX37*%
X144970500Y-72707500D03*
D11*
X146240500Y-70167500D03*
D12*
X150050500Y-72707500D03*
D11*
X152590500Y-67627500D03*
D10*
X155130500Y-72707500D03*
%TD*%
D13*
%TO.C,D84*%
X356108000Y-137001250D03*
D14*
X363728000Y-137001250D03*
%TD*%
D13*
%TO.C,D37*%
X146558000Y-79851250D03*
D14*
X154178000Y-79851250D03*
%TD*%
D13*
%TO.C,D38*%
X165608000Y-79851250D03*
D14*
X173228000Y-79851250D03*
%TD*%
D10*
%TO.C,MX44*%
X283083000Y-72707500D03*
D11*
X284353000Y-70167500D03*
D12*
X288163000Y-72707500D03*
D11*
X290703000Y-67627500D03*
D10*
X293243000Y-72707500D03*
%TD*%
D13*
%TO.C,D24*%
X213233000Y-60801250D03*
D14*
X220853000Y-60801250D03*
%TD*%
D13*
%TO.C,D8*%
X184658000Y-32226250D03*
D14*
X192278000Y-32226250D03*
%TD*%
D13*
%TO.C,D67*%
X160845500Y-117951250D03*
D14*
X168465500Y-117951250D03*
%TD*%
D10*
%TO.C,MX26*%
X249745500Y-53657500D03*
D11*
X251015500Y-51117500D03*
D12*
X254825500Y-53657500D03*
D11*
X257365500Y-48577500D03*
D10*
X259905500Y-53657500D03*
%TD*%
%TO.C,MX22*%
X173545500Y-53657500D03*
D11*
X174815500Y-51117500D03*
D12*
X178625500Y-53657500D03*
D11*
X181165500Y-48577500D03*
D10*
X183705500Y-53657500D03*
%TD*%
%TO.C,MX74*%
X23526750Y-129857500D03*
D11*
X24796750Y-127317500D03*
D12*
X28606750Y-129857500D03*
D11*
X31146750Y-124777500D03*
D10*
X33686750Y-129857500D03*
%TD*%
%TO.C,MX23*%
X192595500Y-53657500D03*
D11*
X193865500Y-51117500D03*
D12*
X197675500Y-53657500D03*
D11*
X200215500Y-48577500D03*
D10*
X202755500Y-53657500D03*
%TD*%
D13*
%TO.C,D69*%
X198945500Y-117951250D03*
D14*
X206565500Y-117951250D03*
%TD*%
D10*
%TO.C,MX31*%
X25908000Y-72707500D03*
D11*
X27178000Y-70167500D03*
D12*
X30988000Y-72707500D03*
D11*
X33528000Y-67627500D03*
D10*
X36068000Y-72707500D03*
%TD*%
D13*
%TO.C,D72*%
X272764250Y-117951250D03*
D14*
X280384250Y-117951250D03*
%TD*%
D10*
%TO.C,MX17*%
X78295500Y-53657500D03*
D11*
X79565500Y-51117500D03*
D12*
X83375500Y-53657500D03*
D11*
X85915500Y-48577500D03*
D10*
X88455500Y-53657500D03*
%TD*%
D13*
%TO.C,D33*%
X70358000Y-79851250D03*
D14*
X77978000Y-79851250D03*
%TD*%
D10*
%TO.C,MX49*%
X54483000Y-91757500D03*
D11*
X55753000Y-89217500D03*
D12*
X59563000Y-91757500D03*
D11*
X62103000Y-86677500D03*
D10*
X64643000Y-91757500D03*
%TD*%
D13*
%TO.C,D65*%
X122745500Y-117951250D03*
D14*
X130365500Y-117951250D03*
%TD*%
M02*
