M48
; DRILL file {KiCad 7.0.2-0} date 2024 March 15, Friday 16:03:37
; FORMAT={-:-/ absolute / inch / decimal}
; #@! TF.CreationDate,2024-03-15T16:03:37-04:00
; #@! TF.GenerationSoftware,Kicad,Pcbnew,7.0.2-0
; #@! TF.FileFunction,Plated,1,2,PTH
FMAT,2
INCH
; #@! TA.AperFunction,Plated,PTH,ViaDrill
T1C0.0157
; #@! TA.AperFunction,Plated,PTH,ComponentDrill
T2C0.0236
; #@! TA.AperFunction,Plated,PTH,ComponentDrill
T3C0.0315
; #@! TA.AperFunction,Plated,PTH,ComponentDrill
T4C0.0390
; #@! TA.AperFunction,Plated,PTH,ComponentDrill
T5C0.0394
; #@! TA.AperFunction,Plated,PTH,ComponentDrill
T6C0.0591
%
G90
G05
T1
X0.7795Y-1.378
X1.7776Y-1.4065
X2.9055Y-1.4242
X3.6398Y-1.4419
X4.372Y-1.4596
X5.1063Y-1.4773
X5.8406Y-1.4951
X6.7402Y-1.5128
X7.4783Y-1.5305
X8.0453Y-1.5482
X9.3031Y-1.5659
X10.0374Y-1.5836
X10.7697Y-1.6014
X10.8054Y-1.6191
X11.3937Y-1.3494
X11.3957Y-1.6368
X11.7628Y-2.3157
X11.7638Y-2.3728
X11.8021Y-2.3157
X11.8031Y-2.3728
X11.8031Y-3.0699
X11.8031Y-3.127
X11.8415Y-2.3157
X11.8425Y-2.3728
X11.8425Y-3.0699
X11.8425Y-3.127
X12.0012Y-1.4773
X12.0019Y-1.5184
X12.0019Y-1.5971
X12.002Y-1.5577
X12.0876Y-1.1988
X12.1899Y-1.1988
X12.3054Y-0.5808
X12.3799Y-1.7342
X12.3844Y-0.6873
X12.4288Y-0.5766
X12.4308Y-0.7395
X12.4429Y-0.6801
X12.6338Y-0.6604
X13.1299Y-1.7382
X13.2692Y-1.7377
X13.7515Y-1.1038
X13.7657Y-2.3199
X13.7657Y-2.377
X13.7657Y-3.0502
X13.7657Y-3.1073
T3
X12.7894Y-0.7894
X12.7894Y-0.8681
X12.7894Y-0.9469
X12.7894Y-1.0256
X12.7894Y-1.1043
X12.7894Y-1.1831
X12.7894Y-1.2618
X12.7894Y-1.3406
X12.7894Y-1.4193
X12.7894Y-1.498
X12.8681Y-0.7106
X12.8681Y-1.5768
X12.9469Y-0.7106
X12.9469Y-1.5768
X13.0256Y-0.7106
X13.0256Y-1.5768
X13.1043Y-0.7106
X13.1043Y-1.5768
X13.1831Y-0.7106
X13.1831Y-1.5768
X13.2618Y-0.7106
X13.2618Y-1.5768
X13.3406Y-0.7106
X13.3406Y-1.5768
X13.4193Y-0.7106
X13.4193Y-1.5768
X13.498Y-0.7106
X13.498Y-1.5768
X13.5768Y-0.7106
X13.5768Y-1.5768
X13.6555Y-0.7894
X13.6555Y-0.8681
X13.6555Y-0.9469
X13.6555Y-1.0256
X13.6555Y-1.1043
X13.6555Y-1.1831
X13.6555Y-1.2618
X13.6555Y-1.3406
X13.6555Y-1.4193
X13.6555Y-1.498
T4
X0.895Y-1.2688
X0.895Y-2.3937
X0.9888Y-5.3937
X1.0825Y-3.1437
X1.1763Y-3.8937
X1.195Y-1.2688
X1.195Y-2.3937
X1.2888Y-5.3937
X1.3638Y-4.6437
X1.3825Y-3.1437
X1.4763Y-3.8937
X1.645Y-2.3937
X1.6638Y-4.6437
X1.9263Y-5.3937
X1.945Y-2.3937
X2.02Y-3.1437
X2.2075Y-3.8937
X2.2262Y-5.3937
X2.32Y-3.1437
X2.395Y-1.2688
X2.395Y-2.3937
X2.5075Y-3.8937
X2.5825Y-4.6437
X2.695Y-1.2688
X2.695Y-2.3937
X2.77Y-3.1437
X2.8638Y-5.3937
X2.8825Y-4.6437
X2.9575Y-3.8937
X3.07Y-3.1437
X3.145Y-1.2688
X3.145Y-2.3937
X3.1637Y-5.3937
X3.2575Y-3.8937
X3.3325Y-4.6437
X3.445Y-1.2688
X3.445Y-2.3937
X3.52Y-3.1437
X3.6325Y-4.6437
X3.7075Y-3.8937
X3.82Y-3.1437
X3.895Y-1.2688
X3.895Y-2.3937
X4.0075Y-3.8937
X4.0825Y-4.6437
X4.195Y-1.2688
X4.195Y-2.3937
X4.27Y-3.1437
X4.3825Y-4.6437
X4.4575Y-3.8937
X4.57Y-3.1437
X4.645Y-1.2688
X4.645Y-2.3937
X4.7575Y-3.8937
X4.8325Y-4.6437
X4.945Y-1.2688
X4.945Y-2.3937
X5.02Y-3.1437
X5.1325Y-4.6437
X5.2075Y-3.8937
X5.32Y-3.1437
X5.395Y-2.3937
X5.5075Y-3.8937
X5.5825Y-4.6437
X5.6762Y-5.3937
X5.695Y-2.3937
X5.77Y-1.2688
X5.77Y-3.1437
X5.8825Y-4.6437
X5.9575Y-3.8937
X5.9763Y-5.3937
X6.07Y-1.2688
X6.07Y-3.1437
X6.145Y-2.3937
X6.2575Y-3.8937
X6.3325Y-4.6437
X6.445Y-2.3937
X6.52Y-1.2688
X6.52Y-3.1437
X6.6325Y-4.6437
X6.7075Y-3.8937
X6.82Y-1.2688
X6.82Y-3.1437
X6.895Y-2.3937
X7.0075Y-3.8937
X7.0825Y-4.6437
X7.195Y-2.3937
X7.27Y-1.2688
X7.27Y-3.1437
X7.3825Y-4.6437
X7.4575Y-3.8937
X7.57Y-1.2688
X7.57Y-3.1437
X7.645Y-2.3937
X7.7575Y-3.8937
X7.8325Y-4.6437
X7.945Y-2.3937
X8.02Y-1.2688
X8.02Y-3.1437
X8.1325Y-4.6437
X8.2075Y-3.8937
X8.32Y-1.2688
X8.32Y-3.1437
X8.395Y-2.3937
X8.4887Y-5.3937
X8.5075Y-3.8937
X8.5825Y-4.6437
X8.695Y-2.3937
X8.77Y-3.1437
X8.7888Y-5.3937
X8.8825Y-4.6437
X8.9575Y-3.8937
X9.07Y-3.1437
X9.145Y-1.2688
X9.145Y-2.3937
X9.2575Y-3.8937
X9.3325Y-4.6437
X9.4262Y-5.3937
X9.445Y-1.2688
X9.445Y-2.3937
X9.52Y-3.1437
X9.6325Y-4.6437
X9.7075Y-3.8937
X9.7263Y-5.3937
X9.82Y-3.1437
X9.895Y-1.2688
X9.895Y-2.3937
X10.0075Y-3.8937
X10.195Y-1.2688
X10.195Y-2.3937
X10.27Y-3.1437
X10.3637Y-5.3937
X10.57Y-3.1437
X10.645Y-1.2688
X10.6638Y-5.3937
X10.7387Y-4.6437
X10.9262Y-3.8937
X10.945Y-1.2688
X11.02Y-2.3937
X11.0388Y-4.6437
X11.2075Y-3.1437
X11.2263Y-3.8937
X11.3012Y-5.3937
X11.32Y-2.3937
X11.395Y-1.2688
X11.5075Y-3.1437
X11.6013Y-5.3937
X11.695Y-1.2688
X12.1614Y-1.3346
X12.1622Y-1.4587
X12.3024Y-1.1969
X12.4024Y-1.1969
X12.52Y-2.3937
X12.52Y-3.1437
X12.52Y-5.3937
X12.5614Y-1.3346
X12.5622Y-1.4587
X12.82Y-2.3937
X12.82Y-3.1437
X12.82Y-5.3937
X13.27Y-2.3937
X13.27Y-3.1437
X13.27Y-4.6437
X13.27Y-5.3937
X13.57Y-2.3937
X13.57Y-3.1437
X13.57Y-4.6437
X13.57Y-5.3937
X14.0114Y-1.3189
X14.02Y-2.3937
X14.02Y-3.1437
X14.02Y-5.3937
X14.3114Y-1.3189
X14.32Y-2.3937
X14.32Y-3.1437
X14.32Y-5.3937
T5
X13.8622Y-0.8878
X13.8622Y-0.9862
X13.8622Y-1.0846
X14.4331Y-0.8878
X14.4331Y-1.0846
T2
G00X12.2049Y-0.4392
M15
G01X12.2049Y-0.4156
M16
G05
G00X12.2049Y-0.6136
M15
G01X12.2049Y-0.5703
M16
G05
G00X12.5451Y-0.4392
M15
G01X12.5451Y-0.4156
M16
G05
G00X12.5451Y-0.6136
M15
G01X12.5451Y-0.5703
M16
G05
T6
G00X14.1319Y-0.7657
M15
G01X14.1831Y-0.7657
M16
G05
G00X14.1319Y-1.2067
M15
G01X14.1831Y-1.2067
M16
G05
T0
M30
