%TF.GenerationSoftware,KiCad,Pcbnew,7.0.2-0*%
%TF.CreationDate,2024-03-15T16:03:43-04:00*%
%TF.ProjectId,75Dash_PCB,37354461-7368-45f5-9043-422e6b696361,rev?*%
%TF.SameCoordinates,Original*%
%TF.FileFunction,Profile,NP*%
%FSLAX46Y46*%
G04 Gerber Fmt 4.6, Leading zero omitted, Abs format (unit mm)*
G04 Created by KiCad (PCBNEW 7.0.2-0) date 2024-03-15 16:03:43*
%MOMM*%
%LPD*%
G01*
G04 APERTURE LIST*
%TA.AperFunction,Profile*%
%ADD10C,0.100000*%
%TD*%
G04 APERTURE END LIST*
D10*
X373475000Y-14287500D02*
G75*
G03*
X373475000Y-14287500I-2000000J0D01*
G01*
X376237500Y-142875000D02*
X376237500Y-11906250D01*
X373856250Y-9525000D02*
X11906250Y-9525000D01*
X11906250Y-145256250D02*
X373856250Y-145256250D01*
X47243750Y-14287500D02*
G75*
G03*
X47243750Y-14287500I-2000000J0D01*
G01*
X137731250Y-14287500D02*
G75*
G03*
X137731250Y-14287500I-2000000J0D01*
G01*
X376237500Y-11906250D02*
G75*
G03*
X373856250Y-9525000I-2381300J-50D01*
G01*
X16287500Y-14287500D02*
G75*
G03*
X16287500Y-14287500I-2000000J0D01*
G01*
X47243750Y-140493750D02*
G75*
G03*
X47243750Y-140493750I-2000000J0D01*
G01*
X373856250Y-145256300D02*
G75*
G03*
X376237500Y-142875000I-50J2381300D01*
G01*
X223456250Y-140493750D02*
G75*
G03*
X223456250Y-140493750I-2000000J0D01*
G01*
X9525000Y-11906250D02*
X9525000Y-142875000D01*
X16287500Y-140493750D02*
G75*
G03*
X16287500Y-140493750I-2000000J0D01*
G01*
X137731250Y-140493750D02*
G75*
G03*
X137731250Y-140493750I-2000000J0D01*
G01*
X373475000Y-80962500D02*
G75*
G03*
X373475000Y-80962500I-2000000J0D01*
G01*
X373475000Y-140493750D02*
G75*
G03*
X373475000Y-140493750I-2000000J0D01*
G01*
X16287500Y-80962500D02*
G75*
G03*
X16287500Y-80962500I-2000000J0D01*
G01*
X11906250Y-9525000D02*
G75*
G03*
X9525000Y-11906250I0J-2381250D01*
G01*
X9525000Y-142875000D02*
G75*
G03*
X11906250Y-145256250I2381250J0D01*
G01*
X223456250Y-14287500D02*
G75*
G03*
X223456250Y-14287500I-2000000J0D01*
G01*
M02*
